<?xml version="1.0" encoding="utf-8"?>
<!-- Generator: Adobe Illustrator 23.0.3, SVG Export Plug-In . SVG Version: 6.00 Build 0)  -->
<svg version="1.1" id="Layer_1" xmlns="http://www.w3.org/2000/svg" xmlns:xlink="http://www.w3.org/1999/xlink" x="0px" y="0px"
	 viewBox="0 0 400 210.87" style="enable-background:new 0 0 400 210.87;" xml:space="preserve">
<style type="text/css">
	.st0{fill:#FFFFFF;}
</style>
<rect class="st0" width="400" height="210.87"/>
<g>
	<path d="M319.98,175.09H268.2c-9.06,0-16.42-7.37-16.42-16.42V87.09c0-2.34,1.9-4.24,4.24-4.24h76.15c2.34,0,4.24,1.9,4.24,4.24
		v71.58C336.4,167.73,329.03,175.09,319.98,175.09z M260.25,91.33v67.34c0,4.38,3.56,7.95,7.95,7.95h51.78
		c4.38,0,7.94-3.56,7.94-7.95V91.33H260.25z"/>
</g>
<g>
	<path d="M338.89,91.33h-89.6c-2.34,0-4.24-1.9-4.24-4.24v-5.96c0-8.01,6.51-14.52,14.52-14.52h69.04c8.01,0,14.52,6.51,14.52,14.52
		v5.96C343.13,89.43,341.23,91.33,338.89,91.33z M253.52,82.85h81.13v-1.73c0-3.33-2.71-6.04-6.04-6.04h-69.04
		c-3.33,0-6.04,2.71-6.04,6.04V82.85z"/>
</g>
<g>
	<path d="M309.57,75.08H278.6c-2.34,0-4.24-1.9-4.24-4.24v-3.93c0-7.31,5.94-13.25,13.25-13.25h12.95c7.31,0,13.25,5.94,13.25,13.25
		v3.93C313.81,73.19,311.91,75.08,309.57,75.08z M282.85,66.61h22.47c-0.16-2.49-2.23-4.47-4.76-4.47h-12.95
		C285.09,62.14,283.01,64.12,282.85,66.61z"/>
</g>
<g>
	<path d="M276.79,153.46c-2.34,0-4.24-1.9-4.24-4.24v-39.11c0-2.34,1.9-4.24,4.24-4.24c2.34,0,4.24,1.9,4.24,4.24v39.11
		C281.02,151.57,279.13,153.46,276.79,153.46z"/>
</g>
<g>
	<path d="M294.09,153.46c-2.34,0-4.24-1.9-4.24-4.24v-39.11c0-2.34,1.9-4.24,4.24-4.24s4.24,1.9,4.24,4.24v39.11
		C298.33,151.57,296.43,153.46,294.09,153.46z"/>
</g>
<g>
	<path d="M311.39,153.46c-2.34,0-4.24-1.9-4.24-4.24v-39.11c0-2.34,1.9-4.24,4.24-4.24c2.34,0,4.24,1.9,4.24,4.24v39.11
		C315.63,151.57,313.73,153.46,311.39,153.46z"/>
</g>
</svg>
